<?xml version="1.0" encoding="utf-8"?>
<!-- Generator: Adobe Illustrator 16.0.0, SVG Export Plug-In . SVG Version: 6.00 Build 0)  -->
<!DOCTYPE svg PUBLIC "-//W3C//DTD SVG 1.1//EN" "http://www.w3.org/Graphics/SVG/1.1/DTD/svg11.dtd">
<svg version="1.1" id="Your_Icon" xmlns="http://www.w3.org/2000/svg" xmlns:xlink="http://www.w3.org/1999/xlink" x="0px" y="0px"
	 width="1001.735px" height="781.31px" viewBox="0 -217.69 1001.735 781.31" enable-background="new 0 -217.69 1001.735 781.31"
	 xml:space="preserve">
<rect x="429.308" y="512.518" width="153.329" height="51.102"/>
<path d="M875.492-182.544c25.229,9.284,50.428,21.742,75.117,38.276v653.026c0,0-252.728-80.801-445.676,9.893l1.214-663.788
	c0,0,36.062-20.368,92.014-37.395h-194.35c58.081,17.026,96.353,37.395,96.353,37.395l-1.078,663.788
	c-192.919-90.693-447.971-9.893-447.971-9.893v-653.037c23.441-16.537,47.783-28.993,72.444-38.28H0v715.521h1001.735v-715.507
	H875.492z"/>
<path d="M514.151,538.136l-17.626-8.314c-59.106-27.787-130.394-41.854-211.889-41.854c-122.137,0-225.896,32.234-226.913,32.557
	l-16.825,5.093v-676.365l6.044-3.685c60.688-41.963,132.293-63.255,212.165-63.255c133.774,0,244.02,59.166,248.629,61.692
	l6.589,3.523L514.151,538.136z M281.753,463.225c77.305,0,147.5,12.276,206.216,36.479l0.901-637.281
	c-25.159-12.364-123.144-55.4-232.662-55.4c-72.392,0-133.573,18.596-194.903,55.266v629.988
	C102.214,483.034,183.103,463.225,281.753,463.225z"/>
<path d="M492.161,538.136l1.413-690.583l6.376-3.523c4.583-2.52,113.333-61.72,246.261-61.72
	c79.291,0,149.472,21.292,210.154,63.242l4.46,3.699v676.396l-15.281-5.146c-1.023-0.299-102.995-32.533-224.667-32.533
	c-81.181,0-152.115,14.081-211.223,41.854L492.161,538.136z M518.262-137.617l-1.28,637.293
	c58.647-24.175,128.587-36.453,205.574-36.453c98.212,0,187.141,19.796,217.824,29.054v-629.974
	c-61.331-36.682-121.027-55.252-192.934-55.252C638.559-192.961,543.071-149.981,518.262-137.617z"/>
<g>
	<path d="M404.296-30.302c-136.201-68.079-254.875-0.991-256.048-0.283l-10.297-17.667c5.203-3.033,129.121-73.499,275.481-0.317
		L404.296-30.302z"/>
</g>
<g>
	<path d="M404.296,51.478c-136.201-68.086-254.875-0.99-256.048-0.304l-10.297-17.666c5.203-3.033,129.121-73.49,275.481-0.317
		L404.296,51.478z"/>
</g>
<g>
	<path d="M404.296,133.257c-136.201-68.095-254.875-0.985-256.048-0.312l-10.297-17.64c5.203-3.06,129.121-73.504,275.481-0.323
		L404.296,133.257z"/>
</g>
<g>
	<path d="M404.296,215.04c-136.201-68.093-254.875-1.023-256.048-0.311l-10.297-17.653c5.203-3.043,129.121-73.497,275.481-0.323
		L404.296,215.04z"/>
</g>
<g>
	<path d="M404.296,296.772c-136.201-68.08-254.875-0.973-256.048-0.298l-10.297-17.64c5.203-3.06,129.121-73.524,275.481-0.311
		L404.296,296.772z"/>
</g>
<g>
	<path d="M404.296,378.571c-136.201-68.08-254.875-0.999-256.048-0.282l-10.297-17.683c5.203-3.043,129.121-73.483,275.481-0.308
		L404.296,378.571z"/>
</g>
<g>
	<path d="M854.051-30.302c-136.187-68.079-254.867-0.991-256.054-0.283l-10.295-17.667c5.2-3.033,129.111-73.499,275.483-0.317
		L854.051-30.302z"/>
</g>
<g>
	<path d="M854.051,51.478c-136.187-68.086-254.867-0.99-256.054-0.304l-10.295-17.666c5.2-3.033,129.111-73.49,275.483-0.317
		L854.051,51.478z"/>
</g>
<g>
	<path d="M854.051,133.257c-136.187-68.095-254.867-0.985-256.054-0.312l-10.295-17.64c5.2-3.06,129.111-73.504,275.483-0.323
		L854.051,133.257z"/>
</g>
<g>
	<path d="M854.051,215.04c-136.187-68.093-254.867-1.023-256.054-0.311l-10.295-17.653c5.2-3.043,129.111-73.497,275.483-0.323
		L854.051,215.04z"/>
</g>
<g>
	<path d="M854.051,296.772c-136.187-68.08-254.867-0.973-256.054-0.298l-10.295-17.64c5.2-3.06,129.111-73.524,275.483-0.311
		L854.051,296.772z"/>
</g>
<g>
	<path d="M854.051,378.571c-136.187-68.08-254.867-0.999-256.054-0.282l-10.295-17.683c5.2-3.043,129.111-73.483,275.483-0.308
		L854.051,378.571z"/>
</g>
</svg>
