<?xml version="1.0" encoding="utf-8"?>
<!-- Generator: Adobe Illustrator 16.0.0, SVG Export Plug-In . SVG Version: 6.00 Build 0)  -->
<!DOCTYPE svg PUBLIC "-//W3C//DTD SVG 1.1//EN" "http://www.w3.org/Graphics/SVG/1.1/DTD/svg11.dtd">
<svg version="1.1" id="Layer_1" xmlns="http://www.w3.org/2000/svg" xmlns:xlink="http://www.w3.org/1999/xlink" x="0px" y="0px"
	 width="354.942px" height="392.114px" viewBox="18.181 -322.768 354.942 392.114"
	 enable-background="new 18.181 -322.768 354.942 392.114" xml:space="preserve">
<g id="Layer_1_1_">
	<g>
		<path fill="#CC0000" d="M151.866-136.527c10.622,3.182,44.955,3.732,67.392,3.732c6.56,0,12.121-0.048,15.753-0.084
			c7.123-0.084,12.848-5.944,12.761-13.072c-0.076-7.085-5.844-12.771-12.912-12.771c-0.055,0-0.098,0-0.152,0
			c-30.964,0.358-68.614-0.518-75.406-2.553c-6.082-2.312-14.275-28.229-17.772-39.293c-0.485-1.529-0.948-2.984-1.426-4.469
			c-0.057-10.611-4.984-21.058-14.272-27.722c-15.398-11.048-36.832-7.541-47.898,7.855C9.951-130.293,17.102-103.506,19.79-93.42
			c3.304,12.373,12.994,21.252,24.564,24.274c2.139,1.043,4.508,1.681,7.039,1.681c0.062,0,0.111,0,0.16,0
			c47.229-0.488,78.261,7.841,92.151,24.654c14.896,18.041,9.074,46.814,4.398,69.94c-1.846,9.102-3.58,17.693-3.989,25.19
			c-0.493,8.912,6.334,16.523,15.241,17.006c0.295,0.021,0.596,0.021,0.894,0.021c8.514,0,15.634-6.651,16.108-15.265
			c0.287-5.15,1.8-12.625,3.398-20.545C185.473,5.271,193.313-33.46,168.6-63.37c-16.092-19.485-43.011-30.994-81.569-34.886
			c0.282-2.363,0.341-4.775,0.116-7.209c2.873-10.72,18.675-38.575,37.035-65.704C130.483-154.548,138.471-140.549,151.866-136.527z
			"/>
		<path fill="#CC0000" d="M172.939-322.768c25.828,0,46.773,20.941,46.773,46.774c0,25.83-20.945,46.771-46.773,46.771
			c-25.833,0-46.771-20.941-46.771-46.771C126.168-301.827,147.106-322.768,172.939-322.768z"/>
		<path fill="#CC0000" d="M280.963-117.947h-51.671c-5.351,0-9.677,7.386-9.677,12.736c0,5.345,4.332,12.739,9.677,12.739h51.671
			c5.351,0,9.688-7.394,9.688-12.739C290.65-110.561,286.313-117.947,280.963-117.947z"/>
		<path fill="#CC0000" d="M335.508-182.786c-0.021-0.051-0.06-0.098-0.081-0.144l35.565-84.058
			c3.475-8.215-0.363-17.696-8.57-21.163c-8.218-3.461-17.693,0.363-21.162,8.573l-51.303,121.253
			c-3.48,8.229,0.362,17.702,8.575,21.171c2.049,0.865,4.185,1.285,6.288,1.285c6.283,0,12.262-3.705,14.869-9.86l5.909-13.964
			l18.23,41.743h-30.573c-5.352,0-9.677,7.383-9.677,12.734c0,5.345,4.331,12.739,9.677,12.739h59.867L335.508-182.786z"/>
	</g>
</g>
<g id="nyt_x5F_exporter_x5F_info" display="none">
</g>
</svg>
