<?xml version="1.0" encoding="utf-8"?>
<!-- Generator: Adobe Illustrator 16.0.0, SVG Export Plug-In . SVG Version: 6.00 Build 0)  -->
<!DOCTYPE svg PUBLIC "-//W3C//DTD SVG 1.1//EN" "http://www.w3.org/Graphics/SVG/1.1/DTD/svg11.dtd">
<svg version="1.1" id="Layer_1" xmlns="http://www.w3.org/2000/svg" xmlns:xlink="http://www.w3.org/1999/xlink" x="0px" y="0px"
	 width="353.287px" height="314.036px" viewBox="17.963 -249.962 353.287 314.036"
	 enable-background="new 17.963 -249.962 353.287 314.036" xml:space="preserve">
<path d="M351.626-230.335l19.624-19.627H37.59l-19.627,19.627l19.627,19.626l-19.627,19.627l19.627,19.629l-19.627,19.627
	l19.627,19.626l-19.627,19.627L37.59-92.945L17.963-73.318L37.59-53.689L17.963-34.062L37.59-14.436L17.963,5.191L37.59,24.815
	L17.963,44.445L37.59,64.074h333.66l-19.624-19.629l19.624-19.629L351.626,5.191l19.624-19.627l-19.624-19.626l19.624-19.627
	l-19.624-19.629l19.624-19.627l-19.624-19.626l19.624-19.627l-19.624-19.626l19.624-19.627l-19.624-19.629l19.624-19.627
	L351.626-230.335z M194.611,24.815c-65.046,0-117.766-52.714-117.766-117.761c0-65.044,52.72-117.763,117.766-117.763
	c65.042,0,117.761,52.719,117.761,117.763C312.372-27.898,259.653,24.815,194.611,24.815z"/>
<path d="M194.611-191.082c-54.212,0-98.139,43.927-98.139,98.136c0,54.21,43.927,98.137,98.139,98.137
	c54.205,0,98.132-43.927,98.132-98.137C292.743-147.155,248.816-191.082,194.611-191.082z M194.611-2.659
	c-49.857,0-90.288-40.431-90.288-90.286c0-49.852,40.431-90.286,90.288-90.286c49.848,0,90.286,40.434,90.286,90.286
	C284.897-43.09,244.459-2.659,194.611-2.659z"/>
<path d="M194.611-179.306c47.694,0,86.358,38.667,86.358,86.36c0,47.697-38.664,86.358-86.358,86.358
	c-47.699,0-86.362-38.661-86.362-86.358C108.249-140.639,146.912-179.306,194.611-179.306z"/>
</svg>
