<?xml version="1.0" encoding="utf-8"?>
<!-- Generator: Adobe Illustrator 16.0.0, SVG Export Plug-In . SVG Version: 6.00 Build 0)  -->
<!DOCTYPE svg PUBLIC "-//W3C//DTD SVG 1.1//EN" "http://www.w3.org/Graphics/SVG/1.1/DTD/svg11.dtd">
<svg version="1.1" id="Layer_1" xmlns="http://www.w3.org/2000/svg" xmlns:xlink="http://www.w3.org/1999/xlink" x="0px" y="0px"
	 width="339.879px" height="298.396px" viewBox="0 0 339.879 298.396" enable-background="new 0 0 339.879 298.396"
	 xml:space="preserve">
<path fill="#FF6666" d="M205.183,107.714c-5.583,5.578-13.104,8.786-20.672,8.786c-6.658,0-12.825-2.478-17.36-6.97l-68.53-68.572
	l-6.207,6.204l23.672,23.669L39.358,147.56c-2.264,2.267-4.079,4.886-5.438,7.772c-2.124,4.494-2.997,9.446-2.579,14.365
	C11.084,149.236-0.033,123.262,0,96.526c0.033-25.553,10.213-49.744,28.659-68.081C47.094,10.112,71.565-0.001,97.573-0.001
	c15.372,0,30.015,3.454,43.542,10.213c5.506,2.721,10.871,6.067,15.93,10.005l2.406,1.882l47.58,47.55
	C216.965,79.655,216.163,96.73,205.183,107.714z"/>
<path fill="#FF6666" d="M151.114,105.865l-76.721,76.73c-3.59,3.552-8.44,5.543-13.559,5.543c-5.475,0-10.703-2.197-14.676-6.17
	c-3.973-3.971-6.165-9.164-6.165-14.675c0-5.157,1.943-9.971,5.54-13.562l76.722-76.727L151.114,105.865z"/>
<path fill="#FF6666" d="M339.879,96.526c0.031,26.911-11.226,53.021-31.723,73.554c-12.199,12.165-26.248,26.214-40.613,40.577
	l-82.894,82.198c-3.591,3.588-8.403,5.543-13.562,5.543c-5.51,0-10.736-2.194-14.676-6.17c-3.868-3.874-6.029-8.959-6.136-14.326
	c-0.104-5.264,1.846-10.216,5.51-13.913l80.589-80.625l-7.521-7.531l-80.594,80.635c-3.594,3.555-8.436,5.535-13.562,5.535
	c-5.472,0-10.699-2.196-14.679-6.159c-3.97-3.978-6.165-9.172-6.165-14.678c0-5.165,1.949-9.978,5.539-13.564l80.593-80.632
	l-8.569-8.573l-80.636,80.591c-3.59,3.591-8.402,5.543-13.559,5.543c-5.507,0-10.74-2.194-14.679-6.16
	c-3.868-3.876-6.029-8.961-6.136-14.329c-0.143-5.261,1.846-10.22,5.507-13.917l76.724-76.719l2.335,2.333
	c6.206,6.174,14.568,9.556,23.531,9.556c9.798,0,19.596-4.15,26.877-11.362c14.365-14.436,15.199-37.058,1.812-50.441
	l-37.367-37.377c18.123-16.87,41.615-26.11,66.479-26.11c25.966,0,50.44,10.112,68.915,28.448
	C329.667,46.781,339.851,70.974,339.879,96.526z"/>
</svg>
