<?xml version="1.0" encoding="utf-8"?>
<!-- Generator: Adobe Illustrator 16.0.0, SVG Export Plug-In . SVG Version: 6.00 Build 0)  -->
<!DOCTYPE svg PUBLIC "-//W3C//DTD SVG 1.1//EN" "http://www.w3.org/Graphics/SVG/1.1/DTD/svg11.dtd">
<svg version="1.1" id="Layer_1" xmlns="http://www.w3.org/2000/svg" xmlns:xlink="http://www.w3.org/1999/xlink" x="0px" y="0px"
	 width="367.103px" height="368.25px" viewBox="10 -278.25 367.103 368.25" enable-background="new 10 -278.25 367.103 368.25"
	 xml:space="preserve">
<path fill="#CC0000" d="M199.788-227.792c0,9.743-0.33,12.991-2.49,15.57c-4.209,5.024-10.392-3.107-23.23-3.107
	c-14.209,0-25.734,11.519-25.734,25.729c0,14.212,11.517,25.734,25.726,25.734c12.848,0,19.024-8.125,23.239-3.105
	c2.156,2.578,2.49,5.828,2.49,15.57v50.454v0.004v-0.004l42.94,0.004c6.296,0,7.184-0.607,7.708-1.821
	c1.079-2.496-1.129-6.568-1.129-15.947c0-19.759,20.855-35.531,39.148-35.531c18.278,0,39.117,14.974,39.117,35.531
	c0,9.375-2.209,13.446-1.134,15.947c0.528,1.205,1.425,1.821,7.717,1.821h42.94V-278.25H199.788l0,0V-227.792z"/>
<path fill="#CC0000" d="M60.459-100.938c9.737,0,12.987,0.334,15.569,2.492c5.024,4.212-3.106,10.395-3.106,23.233
	c0,14.21,11.518,25.732,25.729,25.732c14.212,0,25.729-11.517,25.729-25.723c0-12.848-8.125-19.025-3.104-23.237
	c2.583-2.158,5.833-2.492,15.57-2.492h50.45h0.008h-0.008l0.008-42.942c0-6.296-0.61-7.184-1.825-7.709
	c-2.498-1.078-6.568,1.129-15.947,1.129c-19.76,0-35.528-20.852-35.528-39.147c0-18.277,14.97-39.115,35.528-39.115
	c9.375,0,13.443,2.212,15.947,1.134c1.205-0.528,1.821-1.423,1.821-7.719v-42.947H10v177.312l0,0H60.459z"/>
<path fill="#CC0000" d="M187.312,39.542c0-9.733,0.333-12.987,2.492-15.568c4.212-5.019,10.389,3.109,23.232,3.109
	c14.204,0,25.731-11.517,25.731-25.732c0-14.21-11.521-25.727-25.724-25.727c-12.852,0-19.028,8.125-23.24,3.102
	c-2.159-2.585-2.492-5.831-2.492-15.572v-50.45v-0.008v0.008l-42.942-0.008c-6.295,0-7.183,0.61-7.709,1.824
	c-1.079,2.505,1.128,6.574,1.128,15.948c0,19.763-20.85,35.527-39.149,35.527c-18.276,0-39.114-14.972-39.114-35.527
	c0-9.375,2.211-13.444,1.133-15.948c-0.528-1.201-1.423-1.815-7.718-1.815H10V90h177.312l0,0V39.542z"/>
<path fill="#CC0000" d="M326.645-87.314c-9.739,0-12.986-0.332-15.567-2.492c-5.028-4.209,3.104-10.391,3.104-23.23
	c0-14.21-11.521-25.734-25.729-25.734c-14.213,0-25.73,11.519-25.73,25.725c0,12.848,8.129,19.025,3.105,23.24
	c-2.585,2.16-5.831,2.492-15.572,2.492h-50.45h-0.009h0.009l-0.009,42.944c0,6.292,0.608,7.179,1.824,7.711
	c2.496,1.072,6.564-1.129,15.949-1.129c19.758,0,35.528,20.847,35.528,39.149c0,18.274-14.974,39.112-35.528,39.112
	c-9.374,0-13.444-2.213-15.949-1.133c-1.205,0.528-1.824,1.42-1.824,7.721L199.807,90h177.296V-87.314l0,0H326.645z"/>
</svg>
