<?xml version="1.0" encoding="utf-8"?>
<!-- Generator: Adobe Illustrator 16.0.0, SVG Export Plug-In . SVG Version: 6.00 Build 0)  -->
<!DOCTYPE svg PUBLIC "-//W3C//DTD SVG 1.1//EN" "http://www.w3.org/Graphics/SVG/1.1/DTD/svg11.dtd">
<svg version="1.1" id="Layer_1" xmlns="http://www.w3.org/2000/svg" xmlns:xlink="http://www.w3.org/1999/xlink" x="0px" y="0px"
	 width="335.922px" height="343.726px" viewBox="0 0 335.922 343.726" enable-background="new 0 0 335.922 343.726"
	 xml:space="preserve">
<g>
	<path d="M199.556,213.093c1.632,1.091,3.514,1.638,5.401,1.638c1.885,0,3.766-0.547,5.398-1.638
		c3.329-2.221,81.513-54.789,110.309-107.603c7.128-11.041,10.887-23.801,10.887-36.919c0-37.615-30.579-68.209-68.161-68.209
		c-27.643,0-48.107,22.947-58.433,34.934C194.634,23.308,174.166,0.362,146.53,0.362c-37.588,0-68.167,30.594-68.167,68.209
		c0,13.118,3.765,25.874,10.885,36.919C118.047,158.305,196.23,210.873,199.556,213.093z M146.531,19.848
		c19.471,0,35.761,18.96,44.519,29.146c5.438,6.334,8.441,9.828,13.907,9.828c5.478,0,8.477-3.494,13.924-9.828
		c8.747-10.192,25.031-29.146,44.515-29.146c26.842,0,48.684,21.861,48.684,48.725c0,9.456-2.74,18.655-7.933,26.594
		c-0.143,0.227-0.28,0.457-0.411,0.694c-22.239,41.109-80.689,84.485-98.772,97.271c-18.081-12.781-76.521-56.162-98.771-97.271
		c-0.13-0.237-0.266-0.468-0.412-0.694c-5.187-7.938-7.933-17.138-7.933-26.594C97.841,41.709,119.683,19.848,146.531,19.848z"/>
	<path d="M322.067,210.742c-17.81-10.44-32.743,5.034-38.372,10.861c-11.861,12.297-26.136,24.439-33.367,30.41
		c-3.066-1.377-6.452-2.15-10.018-2.191c-22.027-1.182-56.74-5.158-65.424-10.324c-9.339-5.558-16.815-10.978-23.409-15.751
		c-18.945-13.745-33.909-24.59-71.165-24.59c-10.8,0-20.265,3-29.429,5.897c-9.4,2.984-18.283,5.799-28.998,5.799
		c-11.82-0.001-21.425,9.605-21.425,21.433v54.564c0,11.831,9.601,21.436,21.425,21.436c20.366,0,52.21,1.051,59.234,3.396
		c12.663,4.22,42.349,21.837,52.712,28.257c0.136,0.079,0.266,0.159,0.401,0.239c3.751,2.082,8.004,3.185,12.302,3.185h99.028
		c10.485,0,22.132-9.706,26.176-16.408c12.975-21.564,59.533-80.226,60.007-80.818c0.423-0.535,0.783-1.104,1.085-1.707
		C338.857,232.356,334.222,217.868,322.067,210.742z M245.563,323.86h-99.032c-0.935,0-1.858-0.222-2.686-0.643
		c-3.661-2.267-39.688-24.403-56.564-30.037c-12.547-4.176-56.684-4.391-65.395-4.391c-1.08,0-1.958-0.869-1.958-1.945v-54.559
		c0-1.085,0.874-1.96,1.958-1.96c13.719,0,24.96-3.562,34.867-6.698c8.466-2.678,15.767-4.993,23.56-4.993
		c30.945,0,41.781,7.853,59.741,20.881c6.924,5.03,14.782,10.717,24.87,16.723c5.066,3.018,13.458,5.39,22.868,7.224
		c20.215,3.965,45.119,5.48,51.716,5.828c0.166,0.014,0.337,0.014,0.52,0.014c3.218,0,5.843,2.624,5.843,5.85
		s-2.62,5.842-5.843,5.842c-0.172,0-0.343,0.017-0.52,0.021l-73.69,3.879c-5.872-0.211-19.718-10.022-28.918-16.534
		c-2.38-1.693-4.705-3.316-6.984-4.894c-4.976-3.448-9.736-6.543-14.079-8.711c-4.811-2.424-10.66-0.457-13.061,4.349
		c-2.405,4.818-0.457,10.673,4.353,13.084c5.021,2.503,11.574,7.161,18.533,12.084c14.606,10.355,28.409,20.128,40.361,20.128
		c0.171,0,0.347-0.01,0.521-0.01l73.781-3.895c13.827-0.15,25.034-11.466,25.034-25.333c0-3.131-0.566-6.134-1.616-8.919
		c7.818-6.471,21.887-18.545,33.982-31.081c8.296-8.596,11.61-9.299,14.522-7.589c2.581,1.518,4.477,4.471,3.473,7.44
		c-6.467,8.175-47.826,60.589-60.646,81.882C253.351,319.72,247.638,323.64,245.563,323.86z"/>
</g>
</svg>
