<?xml version="1.0" encoding="UTF-8" standalone="no"?>
<!-- Created with Inkscape (http://www.inkscape.org/) -->

<svg
   xmlns:osb="http://www.openswatchbook.org/uri/2009/osb"
   xmlns:dc="http://purl.org/dc/elements/1.1/"
   xmlns:cc="http://creativecommons.org/ns#"
   xmlns:rdf="http://www.w3.org/1999/02/22-rdf-syntax-ns#"
   xmlns:svg="http://www.w3.org/2000/svg"
   xmlns="http://www.w3.org/2000/svg"
   xmlns:sodipodi="http://sodipodi.sourceforge.net/DTD/sodipodi-0.dtd"
   xmlns:inkscape="http://www.inkscape.org/namespaces/inkscape"
   width="152.36185"
   height="30.012112"
   id="svg3838"
   version="1.1"
   inkscape:version="0.48.4 r9939"
   sodipodi:docname="know-rh.svg">
  <defs
     id="defs3840">
    <linearGradient
       inkscape:collect="always"
       id="linearGradient5812"
       osb:paint="gradient">
      <stop
         style="stop-color:#ff00ff;stop-opacity:1;"
         offset="0"
         id="stop5814" />
      <stop
         style="stop-color:#ff00ff;stop-opacity:0;"
         offset="1"
         id="stop5816" />
    </linearGradient>
  </defs>
  <sodipodi:namedview
     id="base"
     pagecolor="#ffffff"
     bordercolor="#666666"
     borderopacity="1.0"
     inkscape:pageopacity="0.0"
     inkscape:pageshadow="2"
     inkscape:zoom="4"
     inkscape:cx="76.763676"
     inkscape:cy="-21.889665"
     inkscape:document-units="px"
     inkscape:current-layer="layer1"
     showgrid="false"
     fit-margin-top="0"
     fit-margin-left="0"
     fit-margin-right="0"
     fit-margin-bottom="0"
     inkscape:window-width="1366"
     inkscape:window-height="713"
     inkscape:window-x="0"
     inkscape:window-y="30"
     inkscape:window-maximized="1" />
  <metadata
     id="metadata3843">
    <rdf:RDF>
      <cc:Work
         rdf:about="">
        <dc:format>image/svg+xml</dc:format>
        <dc:type
           rdf:resource="http://purl.org/dc/dcmitype/StillImage" />
        <dc:title></dc:title>
      </cc:Work>
    </rdf:RDF>
  </metadata>
  <g
     inkscape:label="Layer 1"
     inkscape:groupmode="layer"
     id="layer1"
     transform="translate(-205.28125,-220.23789)">
    <g
       style="font-size:40px;font-style:normal;font-weight:normal;line-height:125%;letter-spacing:0px;word-spacing:0px;fill:#fb7175;fill-opacity:1;stroke:none;font-family:Sans"
       id="text3846">
      <path
         d="m 311.65685,237.83789 6.88,0 c 2.6,0 3.72,1.04 3.72,3.48 0,0.24 0,0.64 -0.04,1.16 -0.04,0.76 -0.04,1.48 -0.04,1.92 0,2.72 0.16,3.6 0.92,5 l 6.44,0 0,-1.08 c -0.92,-0.52 -1.28,-1.12 -1.28,-2.4 -0.16,-8.59999 -0.32001,-9 -4.04,-10.6 3.27999,-1.28 4.92,-3.64001 4.92,-7.2 0,-2.32 -0.8,-4.44 -2.2,-5.88 -1.32,-1.36 -3.16,-2 -5.64,-2 l -15.64,0 0,29.16 6,0 0,-11.56 m 0,-5 0,-7.6 7.24,0 c 1.72,0 2.44,0.16 3.16,0.76 0.72,0.6 1.08,1.6 1.08,2.96 0,1.4 -0.4,2.52 -1.08,3.12 -0.64,0.56 -1.44,0.76 -3.16,0.76 l -7.24,0"
         style="font-variant:normal;font-weight:bold;font-stretch:normal;font-family:Nimbus Sans L;-inkscape-font-specification:Nimbus Sans L Bold;fill:#fb7175;fill-opacity:1"
         id="path5856" />
      <path
         d="m 351.6431,236.15789 0,13.24 6,0 0,-29.16 -6.04,0 0,10.92 -11.52,0 0,-10.92 -6,0 0,29.16 6,0 0,-13.24 11.56,0"
         style="font-variant:normal;font-weight:bold;font-stretch:normal;font-family:Nimbus Sans L;-inkscape-font-specification:Nimbus Sans L Bold;fill:#fb7175;fill-opacity:1"
         id="path5858" />
    </g>
    <g
       style="font-size:28px;font-style:normal;font-variant:normal;font-weight:bold;font-stretch:normal;line-height:125%;letter-spacing:0px;word-spacing:0px;fill:#e6e6e6;fill-opacity:1;stroke:none;font-family:Nimbus Sans L;-inkscape-font-specification:Nimbus Sans L Bold"
       id="text4360">
      <path
         d="m 218.81591,235.40965 2.1,-2.184 6.692,9.016 5.012,0 -9.016,-11.62 8.148,-8.792 -4.956,0 -7.98,8.96 0,-8.96 -4.2,0 0,20.412 4.2,0 0,-6.832"
         style="fill:#e6e6e6;font-family:Nimbus Sans L;-inkscape-font-specification:Nimbus Sans L Bold"
         id="path5842" />
      <path
         d="m 247.08629,242.24165 4.2,0 0,-20.412 -4.2,0 0,13.888 -8.092,-13.888 -4.312,0 0,20.412 4.2,0 0,-14.112 8.204,14.112"
         style="fill:#e6e6e6;font-family:Nimbus Sans L;-inkscape-font-specification:Nimbus Sans L Bold"
         id="path5844" />
      <path
         d="m 263.93266,221.49365 c -2.85599,0 -5.208,0.95201 -6.944,2.828 -1.81999,1.96 -2.856,4.81601 -2.856,7.868 0,3.052 1.03601,5.93601 2.856,7.868 1.764,1.904 4.06001,2.828 6.972,2.828 2.912,0 5.20801,-0.924 6.972,-2.828 1.764,-1.87599 2.856,-4.844 2.856,-7.728 0,-3.19199 -1.036,-6.048 -2.856,-8.008 -1.79199,-1.93199 -4.06,-2.828 -7,-2.828 m 0.028,3.584 c 3.444,0 5.628,2.80001 5.628,7.224 0,4.172 -2.268,7 -5.628,7 -3.38799,0 -5.628,-2.828 -5.628,-7.112 0,-4.28399 2.24001,-7.112 5.628,-7.112"
         style="fill:#e6e6e6;font-family:Nimbus Sans L;-inkscape-font-specification:Nimbus Sans L Bold"
         id="path5846" />
      <path
         d="m 295.21829,242.24165 5.656,-20.412 -4.452,0 -3.052,15.316 -3.304,-15.316 -4.144,0 -3.164,15.288 -3.164,-15.288 -4.452,0 5.768,20.412 3.78,0 3.332,-15.932 3.416,15.932 3.78,0"
         style="fill:#e6e6e6;font-family:Nimbus Sans L;-inkscape-font-specification:Nimbus Sans L Bold"
         id="path5848" />
    </g>
    <rect
       style="fill:#fb7175;fill-opacity:1;fill-rule:nonzero;stroke:#000000;stroke-width:1.72530866;stroke-opacity:0"
       id="rect5820"
       width="105.50081"
       height="5.3518071"
       x="206.15561"
       y="244.04587" />
  </g>
</svg>
