<?xml version="1.0" encoding="utf-8"?>
<!-- Generator: Adobe Illustrator 16.0.0, SVG Export Plug-In . SVG Version: 6.00 Build 0)  -->
<!DOCTYPE svg PUBLIC "-//W3C//DTD SVG 1.1//EN" "http://www.w3.org/Graphics/SVG/1.1/DTD/svg11.dtd">
<svg version="1.1" id="Layer_1" xmlns="http://www.w3.org/2000/svg" xmlns:xlink="http://www.w3.org/1999/xlink" x="0px" y="0px"
	 width="415.893px" height="276.553px" viewBox="0 0 415.893 276.553" enable-background="new 0 0 415.893 276.553"
	 xml:space="preserve">
<path fill="#FF6666" d="M28.954,41.97v166.031h355.219V107.97c0-4.48,1.536-8.264,4.633-11.348
	c3.086-3.092,6.791-4.635,11.106-4.635c4.184,0,7.959,1.549,11.349,4.635c3.099,3.396,4.633,7.178,4.633,11.348V260.8
	c0,4.322-1.534,8.021-4.633,11.12c-3.25,3.097-7.021,4.633-11.349,4.633c-4.315,0-8.021-1.536-11.106-4.633
	c-3.097-3.1-4.633-6.791-4.633-11.12v-26.402H28.954v27.56c0,4.018-1.39,7.495-4.173,10.422c-2.779,2.778-6.175,4.163-10.189,4.163
	c-3.855,0-7.331-1.386-10.425-4.178C1.391,269.28,0,265.815,0,261.949V41.971c0-4.011,1.39-7.41,4.167-10.193
	c2.938-2.771,6.407-4.163,10.425-4.163c3.71,0,7.103,1.391,10.189,4.163C27.563,34.561,28.954,37.959,28.954,41.97z M47.937,164.698
	c1.539-1.854,5.097-4.321,10.653-7.413c5.712-3.092,11.189-8.879,16.441-17.363c5.096-8.646,10.957-19.684,17.6-33.118
	c6.791-13.43,13.039-22.537,18.758-27.316c5.557-4.639,12.655-7.498,21.299-8.577c8.499-1.085,17.523,2.243,27.102,9.961
	c9.723,7.406,18.672,11.106,26.853,11.106c8.651,0,19.528-4.557,32.653-13.651c13.432-9.109,27.711-13.667,42.828-13.667
	c16.68,0,31.646,5.712,44.922,17.14c11.578,9.57,18.99,19.294,22.24,29.183c3.389,9.875,6.168,19.364,8.326,28.479
	c2.156,8.948,6.943,15.282,14.355,18.981c2.778,0.92,5.166,2.388,7.178,4.398c4.02,3.864,6.022,8.409,6.022,13.665v0.229
	c0,5.256-2.006,9.736-6.022,13.438c-3.705,3.864-8.256,5.781-13.664,5.781H62.989c-5.408,0-10.11-1.917-14.122-5.781
	c-3.703-3.7-5.557-8.183-5.557-13.438v-0.24C44.539,170.486,46.083,166.551,47.937,164.698z M213.038,2.369
	c4.164-2.47,8.732-3.009,13.672-1.618c4.641,1.232,8.182,4.012,10.656,8.333c0.457,0.93,0.932,1.693,1.389,2.312
	c0.77-0.298,1.543-0.772,2.312-1.383c4.314-2.473,8.795-3.095,13.431-1.854c4.938,1.391,8.567,4.174,10.877,8.33
	c2.629,4.321,3.326,8.879,2.097,13.668c-1.396,4.939-5.648,9.573-12.744,13.896c-7.564,4.322-17.912,8.955-31.023,13.896
	c-6.633-8.801-11.805-17.213-15.511-25.244c-3.872-8.024-5.104-14.437-3.707-19.219C205.714,8.699,208.569,4.993,213.038,2.369z
	 M196.829,29.458c2.17,3.709,2.315,9.263,0.463,16.676c-1.693,7.099-5.097,16.289-10.187,27.558
	c-9.564-1.228-17.98-3.167-25.235-5.792c-7.413-2.782-12.122-6.024-14.128-9.729c-2.31-3.859-2.855-7.876-1.618-12.043
	c1.085-4.17,3.478-7.337,7.179-9.489c3.852-2.164,7.869-2.71,12.039-1.625c0.616,0.305,1.308,0.546,2.082,0.695
	c0.158-0.771,0.387-1.545,0.691-2.313c1.238-4.173,3.707-7.336,7.413-9.495c3.707-2.312,7.642-2.857,11.818-1.625
	C191.51,23.362,194.669,25.761,196.829,29.458z"/>
</svg>
