<?xml version="1.0" encoding="utf-8"?>
<!-- Generator: Adobe Illustrator 16.0.0, SVG Export Plug-In . SVG Version: 6.00 Build 0)  -->
<!DOCTYPE svg PUBLIC "-//W3C//DTD SVG 1.1//EN" "http://www.w3.org/Graphics/SVG/1.1/DTD/svg11.dtd">
<svg version="1.1" id="Layer_1" xmlns="http://www.w3.org/2000/svg" xmlns:xlink="http://www.w3.org/1999/xlink" x="0px" y="0px"
	 width="314.689px" height="386.503px" viewBox="21.067 -318.829 314.689 386.503"
	 enable-background="new 21.067 -318.829 314.689 386.503" xml:space="preserve">
<path fill="#CC0000" d="M112.596-213.599h-50.68c-22.137,0-40.849,19.771-40.849,43.17v108.038c0,2.219,0.875,4.322,2.413,5.856
	l14.132,14.129V59.381c0,4.559,3.706,8.272,8.272,8.272h82.727c4.548,0,8.272-3.714,8.272-8.272V-42.408l14.129-14.132
	c1.571-1.551,2.416-3.651,2.416-5.856v-108.035C153.445-193.829,134.749-213.599,112.596-213.599z"/>
<path fill="#CC0000" d="M136.9-269.191c0,27.41-22.225,49.638-49.638,49.638c-27.41,0-49.635-22.228-49.635-49.638
	s22.225-49.637,49.635-49.637C114.676-318.829,136.9-296.602,136.9-269.191z"/>
<path fill="#CC0000" d="M334.883-10.534l-15.989-84.95v-74.948c0-23.397-18.693-43.173-40.844-43.173h-50.682
	c-22.14,0-40.85,19.773-40.85,43.173l0.147,73.394L169.344-8.37c-0.48,2.411,0.166,4.946,1.721,6.849
	c1.59,1.887,3.904,3.01,6.407,3.01h25.592v57.913c0,4.548,3.702,8.272,8.272,8.272h82.725c4.559,0,8.277-3.725,8.277-8.272V1.49
	h24.812c0.054,0,0.119,0,0.168,0c4.979,0.055,8.459-3.654,8.437-8.267C335.777-8.124,335.438-9.417,334.883-10.534z"/>
<path fill="#CC0000" d="M302.349-269.191c0,27.41-22.222,49.638-49.634,49.638c-27.408,0-49.635-22.228-49.635-49.638
	s22.227-49.637,49.635-49.637C280.127-318.829,302.349-296.602,302.349-269.191z"/>
</svg>
