<?xml version="1.0" encoding="utf-8"?>
<!-- Generator: Adobe Illustrator 16.0.0, SVG Export Plug-In . SVG Version: 6.00 Build 0)  -->
<!DOCTYPE svg PUBLIC "-//W3C//DTD SVG 1.1//EN" "http://www.w3.org/Graphics/SVG/1.1/DTD/svg11.dtd">
<svg version="1.1" id="Layer_1" xmlns="http://www.w3.org/2000/svg" xmlns:xlink="http://www.w3.org/1999/xlink" x="0px" y="0px"
	 width="331.735px" height="325.199px" viewBox="5.933 -232.131 331.735 325.199"
	 enable-background="new 5.933 -232.131 331.735 325.199" xml:space="preserve">
<path fill="#CC0000" d="M34.681,8.528C18.83,8.528,5.933-4.369,5.933-20.224c0-15.851,12.897-28.744,28.748-28.744
	s28.745,12.893,28.745,28.744C63.426-4.369,50.528,8.528,34.681,8.528z M34.681-41.435c-11.696,0-21.214,9.513-21.214,21.211
	S22.981,0.994,34.681,0.994c11.696,0,21.21-9.52,21.21-21.218C55.892-31.914,46.377-41.435,34.681-41.435z"/>
<path fill="#CC0000" d="M337.668-20.224c0,4.679-5.04,8.476-11.268,8.476H102.193c-6.219,0-11.254-3.796-11.254-8.476l0,0
	c0-4.679,5.035-8.468,11.254-8.468H326.4C332.628-28.692,337.668-24.903,337.668-20.224L337.668-20.224z"/>
<path fill="#CC0000" d="M34.681-83.059c-15.851,0-28.748-12.897-28.748-28.748s12.897-28.744,28.748-28.744
	s28.745,12.893,28.745,28.744C63.426-95.952,50.528-83.059,34.681-83.059z M34.681-133.014c-11.696,0-21.214,9.515-21.214,21.21
	s9.515,21.214,21.214,21.214c11.696,0,21.21-9.515,21.21-21.214C55.892-123.499,46.377-133.014,34.681-133.014z"/>
<path fill="#CC0000" d="M337.668-111.807c0,4.679-5.04,8.476-11.268,8.476H102.193c-6.219,0-11.254-3.796-11.254-8.476l0,0
	c0-4.679,5.035-8.472,11.254-8.472H326.4C332.628-120.279,337.668-116.486,337.668-111.807L337.668-111.807z"/>
<path fill="#CC0000" d="M36.938-174.639c-15.851,0-28.748-12.897-28.748-28.748c0-15.851,12.897-28.744,28.748-28.744
	s28.744,12.894,28.744,28.744C65.682-187.536,52.789-174.639,36.938-174.639z M36.938-224.597c-11.696,0-21.214,9.515-21.214,21.21
	c0,11.696,9.515,21.214,21.214,21.214c11.696,0,21.21-9.515,21.21-21.214C58.148-215.083,48.634-224.597,36.938-224.597z"/>
<path fill="#CC0000" d="M337.668-203.387c0,4.679-4.996,8.476-11.165,8.476H104.35c-6.164,0-11.153-3.796-11.153-8.476l0,0
	c0-4.679,4.989-8.472,11.153-8.472h222.153C332.672-211.858,337.668-208.065,337.668-203.387L337.668-203.387z"/>
<path fill="#CC0000" d="M337.668,67.591c0,4.679-5.04,8.476-11.268,8.476H102.193c-6.219,0-11.254-3.797-11.254-8.476l0,0
	c0-4.679,5.035-8.468,11.254-8.468H326.4C332.628,59.115,337.668,62.912,337.668,67.591L337.668,67.591z"/>
<circle fill="#CC0000" stroke="#231F20" stroke-miterlimit="10" cx="34.677" cy="67.591" r="24.978"/>
</svg>
