<?xml version="1.0" encoding="utf-8"?>
<!-- Generator: Adobe Illustrator 16.0.0, SVG Export Plug-In . SVG Version: 6.00 Build 0)  -->
<!DOCTYPE svg PUBLIC "-//W3C//DTD SVG 1.1//EN" "http://www.w3.org/Graphics/SVG/1.1/DTD/svg11.dtd">
<svg version="1.1" id="Layer_1" xmlns="http://www.w3.org/2000/svg" xmlns:xlink="http://www.w3.org/1999/xlink" x="0px" y="0px"
	 width="318.602px" height="347.441px" viewBox="0 0 318.602 347.441" enable-background="new 0 0 318.602 347.441"
	 xml:space="preserve">
<path fill="#FD7072" d="M160.343,142.471c27.356,0,49.543-22.212,49.543-49.55c0-27.377-22.189-49.54-49.543-49.54
	c-27.354,0-49.536,22.16-49.536,49.54C110.807,120.258,132.989,142.471,160.343,142.471z"/>
<path fill="#FD7072" d="M82.74,347.441v-43.967l-44.086,12.271c-3.236,1.285-6.752,2.006-10.426,2.006
	C12.642,317.754,0,305.078,0,289.507c0-5.865,1.78-11.295,4.823-15.797l70.718-96.973c7.679-10.517,18.399-22.233,41.012-22.233
	h85.501c22.601,0,33.329,11.72,40.998,22.233l70.715,96.973c3.042,4.502,4.835,9.932,4.835,15.797
	c0,15.568-12.657,28.247-28.232,28.247c-3.67,0-7.197-0.72-10.424-2.007l-44.104-12.268v43.961H82.74z M159.299,316.726
	L159.299,316.726l57.13-18.9l-1.287-0.363c-39.419-11.598-24.07-63.673,15.339-52.049l5.392,1.811v-58.806L159.3,213.433
	l-76.568-25.015v58.81l5.361-1.813c39.441-11.625,54.783,40.455,15.346,52.06l-1.262,0.352L159.299,316.726L159.299,316.726z"/>
<g>
	<path fill="#FD7072" d="M36.851,125.064c1.759,3.779,5.998,6.22,10.794,6.22h0.011c4.79,0,9.028-2.441,10.791-6.22l1.221-2.614
		h-24.04L36.851,125.064z"/>
	<path fill="#FD7072" d="M60.779,108.144l-26.156-0.004c-1.787,0.004-2.875,0.79-3.471,1.446c-0.757,0.835-1.171,1.971-1.167,3.195
		c-0.003,1.311,0.461,2.507,1.308,3.351c0.845,0.849,2,1.297,3.337,1.297h26.149c2.736,0,4.646-1.908,4.646-4.646
		C65.417,110.051,63.512,108.144,60.779,108.144z"/>
	<path fill="#FD7072" d="M64.381,94.433H31.02c-2.73,0.007-4.637,1.915-4.637,4.647c0,2.737,1.909,4.645,4.637,4.645h33.358
		c2.735,0,4.645-1.911,4.645-4.641c0.003-1.311-0.462-2.504-1.308-3.354C66.866,94.88,65.716,94.433,64.381,94.433z"/>
	<path fill="#FD7072" d="M77.995,12.258C70.083,4.356,59.545,0,48.326,0C25.247,0,6.466,18.776,6.462,41.857
		c0.003,11.299,4.689,22.283,12.714,29.995c2.074,2.492,3.361,5.858,3.795,15.683c0.143,3.11,2.392,5.283,5.765,5.283
		c0.003,0,0.011,0,0.018,0c1.559-0.068,2.949-0.688,3.921-1.749c0.966-1.052,1.438-2.448,1.367-4.028
		c-0.508-11.39-2.319-17.528-6.812-22.786c-6.156-5.868-9.686-14.031-9.686-22.395c0-16.973,13.806-30.781,30.771-30.781
		c17.023,0,30.87,13.811,30.87,30.781c0,8.364-3.53,16.53-9.815,22.542c-4.359,5.111-6.167,11.246-6.676,22.646
		c-0.143,3.205,2.081,5.634,5.281,5.777l0.289,0.008c3.096,0,5.355-2.176,5.494-5.294c0.438-9.822,1.725-13.187,3.662-15.534
		c8.17-7.864,12.852-18.849,12.848-30.144C90.263,30.669,85.904,20.16,77.995,12.258z M68.253,90.962L68.253,90.962l0.004,0.027
		L68.253,90.962z"/>
</g>
</svg>
